{"asset":{"version":"2.0","generator":"Codex logical AR marker generator"},"scene":0,"scenes":[{"nodes":[0,1,2,3,4,5,6,7]}],"nodes":[{"mesh":0,"name":"finish-base"},{"mesh":1,"name":"finish-panel"},{"mesh":2,"name":"finish-pole"},{"mesh":3,"name":"finish-flag"},{"mesh":4,"name":"finish-square-a"},{"mesh":5,"name":"finish-square-b"},{"mesh":6,"name":"finish-check-a"},{"mesh":7,"name":"finish-check-b"}],"materials":[{"name":"base","doubleSided":true,"pbrMetallicRoughness":{"baseColorFactor":[0.02,0.035,0.055,0.92],"metallicFactor":0,"roughnessFactor":0.42}},{"name":"test_blue","doubleSided":true,"pbrMetallicRoughness":{"baseColorFactor":[0.05,0.45,0.95,1.0],"metallicFactor":0,"roughnessFactor":0.42}},{"name":"finish_green","doubleSided":true,"pbrMetallicRoughness":{"baseColorFactor":[0.06,0.72,0.32,1.0],"metallicFactor":0,"roughnessFactor":0.42}},{"name":"white","doubleSided":true,"pbrMetallicRoughness":{"baseColorFactor":[0.94,0.98,1.0,1.0],"metallicFactor":0,"roughnessFactor":0.42}},{"name":"dark","doubleSided":true,"pbrMetallicRoughness":{"baseColorFactor":[0.015,0.018,0.022,1.0],"metallicFactor":0,"roughnessFactor":0.42}},{"name":"yellow","doubleSided":true,"pbrMetallicRoughness":{"baseColorFactor":[1.0,0.78,0.16,1.0],"metallicFactor":0,"roughnessFactor":0.42}}],"meshes":[{"name":"finish-base","primitives":[{"attributes":{"POSITION":0,"NORMAL":1},"indices":2,"material":0}]},{"name":"finish-panel","primitives":[{"attributes":{"POSITION":3,"NORMAL":4},"indices":5,"material":2}]},{"name":"finish-pole","primitives":[{"attributes":{"POSITION":6,"NORMAL":7},"indices":8,"material":3}]},{"name":"finish-flag","primitives":[{"attributes":{"POSITION":9,"NORMAL":10},"indices":11,"material":3}]},{"name":"finish-square-a","primitives":[{"attributes":{"POSITION":12,"NORMAL":13},"indices":14,"material":4}]},{"name":"finish-square-b","primitives":[{"attributes":{"POSITION":15,"NORMAL":16},"indices":17,"material":4}]},{"name":"finish-check-a","primitives":[{"attributes":{"POSITION":18,"NORMAL":19},"indices":20,"material":3}]},{"name":"finish-check-b","primitives":[{"attributes":{"POSITION":21,"NORMAL":22},"indices":23,"material":3}]}],"buffers":[{"byteLength":5184,"uri":"data:application/octet-stream;base64,"}],"bufferViews":[{"buffer":0,"byteOffset":0,"byteLength":288,"target":34962},{"buffer":0,"byteOffset":288,"byteLength":288,"target":34962},{"buffer":0,"byteOffset":576,"byteLength":72,"target":34963},{"buffer":0,"byteOffset":648,"byteLength":288,"target":34962},{"buffer":0,"byteOffset":936,"byteLength":288,"target":34962},{"buffer":0,"byteOffset":1224,"byteLength":72,"target":34963},{"buffer":0,"byteOffset":1296,"byteLength":288,"target":34962},{"buffer":0,"byteOffset":1584,"byteLength":288,"target":34962},{"buffer":0,"byteOffset":1872,"byteLength":72,"target":34963},{"buffer":0,"byteOffset":1944,"byteLength":288,"target":34962},{"buffer":0,"byteOffset":2232,"byteLength":288,"target":34962},{"buffer":0,"byteOffset":2520,"byteLength":72,"target":34963},{"buffer":0,"byteOffset":2592,"byteLength":288,"target":34962},{"buffer":0,"byteOffset":2880,"byteLength":288,"target":34962},{"buffer":0,"byteOffset":3168,"byteLength":72,"target":34963},{"buffer":0,"byteOffset":3240,"byteLength":288,"target":34962},{"buffer":0,"byteOffset":3528,"byteLength":288,"target":34962},{"buffer":0,"byteOffset":3816,"byteLength":72,"target":34963},{"buffer":0,"byteOffset":3888,"byteLength":288,"target":34962},{"buffer":0,"byteOffset":4176,"byteLength":288,"target":34962},{"buffer":0,"byteOffset":4464,"byteLength":72,"target":34963},{"buffer":0,"byteOffset":4536,"byteLength":288,"target":34962},{"buffer":0,"byteOffset":4824,"byteLength":288,"target":34962},{"buffer":0,"byteOffset":5112,"byteLength":72,"target":34963}],"accessors":[{"bufferView":0,"componentType":5126,"count":24,"type":"VEC3","min":[-0.21,-0.009,-0.21],"max":[0.21,0.009,0.21]},{"bufferView":1,"componentType":5126,"count":24,"type":"VEC3"},{"bufferView":2,"componentType":5123,"count":36,"type":"SCALAR"},{"bufferView":3,"componentType":5126,"count":24,"type":"VEC3","min":[-0.16,0.015000000000000001,-0.16],"max":[0.16,0.033,0.16]},{"bufferView":4,"componentType":5126,"count":24,"type":"VEC3"},{"bufferView":5,"componentType":5123,"count":36,"type":"SCALAR"},{"bufferView":6,"componentType":5126,"count":24,"type":"VEC3","min":[-0.12,0.0375,-0.135],"max":[-0.09,0.07250000000000001,0.135]},{"bufferView":7,"componentType":5126,"count":24,"type":"VEC3"},{"bufferView":8,"componentType":5123,"count":36,"type":"SCALAR"},{"bufferView":9,"componentType":5126,"count":24,"type":"VEC3","min":[-0.09999999999999999,0.0375,-0.15500000000000003],"max":[0.13999999999999999,0.07250000000000001,-0.015]},{"bufferView":10,"componentType":5126,"count":24,"type":"VEC3"},{"bufferView":11,"componentType":5123,"count":36,"type":"SCALAR"},{"bufferView":12,"componentType":5126,"count":24,"type":"VEC3","min":[-0.07,0.069,-0.155],"max":[-0.010000000000000002,0.087,-0.08499999999999999]},{"bufferView":13,"componentType":5126,"count":24,"type":"VEC3"},{"bufferView":14,"componentType":5123,"count":36,"type":"SCALAR"},{"bufferView":15,"componentType":5126,"count":24,"type":"VEC3","min":[0.05,0.069,-0.085],"max":[0.11,0.087,-0.015]},{"bufferView":16,"componentType":5126,"count":24,"type":"VEC3"},{"bufferView":17,"componentType":5123,"count":36,"type":"SCALAR"},{"bufferView":18,"componentType":5126,"count":24,"type":"VEC3","min":[-0.042499999999999996,0.07,0.06999999999999999],"max":[0.0024999999999999988,0.09,0.16999999999999998]},{"bufferView":19,"componentType":5126,"count":24,"type":"VEC3"},{"bufferView":20,"componentType":5123,"count":36,"type":"SCALAR"},{"bufferView":21,"componentType":5126,"count":24,"type":"VEC3","min":[-0.019999999999999997,0.07,0.05499999999999999],"max":[0.13,0.09,0.095]},{"bufferView":22,"componentType":5126,"count":24,"type":"VEC3"},{"bufferView":23,"componentType":5123,"count":36,"type":"SCALAR"}]}